<svg width="20" height="20" viewBox="0 0 20 20" fill="none" xmlns="http://www.w3.org/2000/svg">
<g id="material-symbols:check-circle">
<g id="Vector" filter="url(#filter0_i_1_691)">
<path d="M8.83335 13.8332L14.7084 7.95817L13.5417 6.7915L8.83335 11.4998L6.45835 9.12484L5.29169 10.2915L8.83335 13.8332ZM10 18.3332C8.84724 18.3332 7.76391 18.1143 6.75002 17.6765C5.73613 17.2387 4.85419 16.6451 4.10419 15.8957C3.35419 15.1457 2.76058 14.2637 2.32335 13.2498C1.88613 12.2359 1.66724 11.1526 1.66669 9.99984C1.66669 8.84706 1.88558 7.76373 2.32335 6.74984C2.76113 5.73595 3.35474 4.854 4.10419 4.104C4.85419 3.354 5.73613 2.76039 6.75002 2.32317C7.76391 1.88595 8.84724 1.66706 10 1.6665C11.1528 1.6665 12.2361 1.88539 13.25 2.32317C14.2639 2.76095 15.1459 3.35456 15.8959 4.104C16.6459 4.854 17.2397 5.73595 17.6775 6.74984C18.1153 7.76373 18.3339 8.84706 18.3334 9.99984C18.3334 11.1526 18.1145 12.2359 17.6767 13.2498C17.2389 14.2637 16.6453 15.1457 15.8959 15.8957C15.1459 16.6457 14.2639 17.2396 13.25 17.6773C12.2361 18.1151 11.1528 18.3337 10 18.3332Z" fill="#FE2C55"/>
</g>
</g>
<defs>
<filter id="filter0_i_1_691" x="1.66669" y="1.6665" width="16.6667" height="16.6665" filterUnits="userSpaceOnUse" color-interpolation-filters="sRGB">
<feFlood flood-opacity="0" result="BackgroundImageFix"/>
<feBlend mode="normal" in="SourceGraphic" in2="BackgroundImageFix" result="shape"/>
<feColorMatrix in="SourceAlpha" type="matrix" values="0 0 0 0 0 0 0 0 0 0 0 0 0 0 0 0 0 0 127 0" result="hardAlpha"/>
<feOffset/>
<feGaussianBlur stdDeviation="1.5"/>
<feComposite in2="hardAlpha" operator="arithmetic" k2="-1" k3="1"/>
<feColorMatrix type="matrix" values="0 0 0 0 0.425 0 0 0 0 0.0460417 0 0 0 0 0.120029 0 0 0 0.4 0"/>
<feBlend mode="normal" in2="shape" result="effect1_innerShadow_1_691"/>
</filter>
</defs>
</svg>
