<svg width="56" height="56" viewBox="0 0 56 56" fill="none" xmlns="http://www.w3.org/2000/svg">
<g id="&#208;&#152;&#208;&#186;&#208;&#190;&#208;&#189;&#208;&#186;&#208;&#176;">
<g id="Ellipse 23">
<g filter="url(#filter0_i_1_22)">
<circle cx="28" cy="28" r="28" fill="#444444"/>
</g>
<circle cx="28" cy="28" r="27.5" stroke="#464646"/>
</g>
<g id="Vector">
<path d="M39.8863 12C40.8913 12 41.8552 12.3992 42.5659 13.1099C43.2765 13.8206 43.6758 14.7844 43.6758 15.7895V26.8295C42.9238 26.1092 42.0732 25.4996 41.1495 25.0189V15.7895C41.1495 15.4545 41.0164 15.1332 40.7795 14.8963C40.5426 14.6594 40.2213 14.5263 39.8863 14.5263H13.7895C13.4545 14.5263 13.1332 14.6594 12.8963 14.8963C12.6594 15.1332 12.5263 15.4545 12.5263 15.7895V35.1663C12.5263 35.8636 13.0922 36.4295 13.7895 36.4295L18.4194 36.4278L18.4211 31.7895C18.4211 31.0498 18.6992 30.3371 19.2003 29.793C19.7014 29.2489 20.3887 28.9131 21.1259 28.8522L21.3684 28.8421H26.8792C25.7522 30.6014 25.1547 32.6476 25.1579 34.7368C25.1579 36.2324 25.4577 37.6573 26 38.9558H13.7895C12.7844 38.9558 11.8206 38.5565 11.1099 37.8459C10.3992 37.1352 10 36.1713 10 35.1663V15.7895C10 14.7844 10.3992 13.8206 11.1099 13.1099C11.8206 12.3992 12.7844 12 13.7895 12H39.8863ZM26.8421 17.0526C28.1821 17.0526 29.4673 17.585 30.4149 18.5325C31.3624 19.4801 31.8947 20.7652 31.8947 22.1053C31.8947 23.4453 31.3624 24.7305 30.4149 25.678C29.4673 26.6256 28.1821 27.1579 26.8421 27.1579C25.5021 27.1579 24.2169 26.6256 23.2694 25.678C22.3218 24.7305 21.7895 23.4453 21.7895 22.1053C21.7895 20.7652 22.3218 19.4801 23.2694 18.5325C24.2169 17.585 25.5021 17.0526 26.8421 17.0526Z" fill="white"/>
<path d="M45.3684 34.7368C45.3684 37.1935 44.3924 39.5497 42.6552 41.2868C40.9181 43.024 38.5619 44 36.1052 44C33.6485 44 31.2923 43.024 29.5552 41.2868C27.818 39.5497 26.842 37.1935 26.842 34.7368C26.842 32.2801 27.818 29.9239 29.5552 28.1867C31.2923 26.4496 33.6485 25.4736 36.1052 25.4736C38.5619 25.4736 40.9181 26.4496 42.6552 28.1867C44.3924 29.9239 45.3684 32.2801 45.3684 34.7368ZM37.0399 29.5494C36.9821 29.3461 36.8596 29.1672 36.6909 29.0398C36.5222 28.9123 36.3166 28.8434 36.1052 28.8434C35.8938 28.8434 35.6882 28.9123 35.5195 29.0398C35.3508 29.1672 35.2283 29.3461 35.1705 29.5494L34.2324 32.5608H31.1957C30.2425 32.5608 29.8484 33.8307 30.618 34.4134L33.0736 36.2745L32.1355 39.2842C31.8408 40.229 32.8783 41.0155 33.6496 40.4311L36.1052 38.5717L38.5608 40.4311C39.3321 41.0155 40.3696 40.229 40.0749 39.2858L39.1368 36.2745L41.5924 34.4151C42.3637 33.8307 41.9679 32.5608 41.0147 32.5608H37.978L37.0399 29.5494Z" fill="#FE2C55"/>
</g>
</g>
<defs>
<filter id="filter0_i_1_22" x="0" y="0" width="56" height="56" filterUnits="userSpaceOnUse" color-interpolation-filters="sRGB">
<feFlood flood-opacity="0" result="BackgroundImageFix"/>
<feBlend mode="normal" in="SourceGraphic" in2="BackgroundImageFix" result="shape"/>
<feColorMatrix in="SourceAlpha" type="matrix" values="0 0 0 0 0 0 0 0 0 0 0 0 0 0 0 0 0 0 127 0" result="hardAlpha"/>
<feOffset/>
<feGaussianBlur stdDeviation="4"/>
<feComposite in2="hardAlpha" operator="arithmetic" k2="-1" k3="1"/>
<feColorMatrix type="matrix" values="0 0 0 0 0 0 0 0 0 0 0 0 0 0 0 0 0 0 0.8 0"/>
<feBlend mode="normal" in2="shape" result="effect1_innerShadow_1_22"/>
</filter>
</defs>
</svg>
