<svg width="56" height="56" viewBox="0 0 56 56" fill="none" xmlns="http://www.w3.org/2000/svg">
<g id="&#208;&#152;&#208;&#186;&#208;&#190;&#208;&#189;&#208;&#186;&#208;&#176;">
<g id="Ellipse 23">
<g filter="url(#filter0_i_1_12)">
<circle cx="28" cy="28" r="28" fill="#444444"/>
</g>
<circle cx="28" cy="28" r="27.5" stroke="#464646"/>
</g>
<g id="Vector">
<path d="M15 15.7333C15 13.6725 16.6725 12 18.7333 12H28.3333C30.3941 12 32.0667 13.6725 32.0667 15.7333V22.7136C30.0218 22.5263 27.9636 22.879 26.0977 23.7363C24.2318 24.5936 22.6236 25.9256 21.4337 27.5992C20.2439 29.2728 19.5141 31.2293 19.3172 33.2732C19.1204 35.3172 19.4634 37.377 20.312 39.2469L19.5163 41.8667H18.7333C17.7432 41.8667 16.7936 41.4733 16.0935 40.7732C15.3933 40.0731 15 39.1235 15 38.1333V15.7333Z" fill="#FE2C55"/>
<path d="M31 44C33.1061 43.9998 35.1537 43.307 36.8273 42.0284C38.5009 40.7498 39.7075 38.9563 40.2613 36.9242C40.8151 34.8922 40.6853 32.7345 39.8919 30.7836C39.0985 28.8326 37.6855 27.1967 35.8707 26.1279C34.056 25.0591 31.9401 24.6168 29.8491 24.8691C27.7582 25.1214 25.8082 26.0543 24.2997 27.5241C22.7912 28.9939 21.8079 30.9189 21.5014 33.0026C21.1948 35.0863 21.582 37.213 22.6032 39.0549L21.4405 42.8715C21.3955 43.0226 21.3922 43.183 21.4309 43.3358C21.4695 43.4887 21.5488 43.6282 21.6603 43.7397C21.7718 43.8512 21.9113 43.9304 22.0642 43.9691C22.217 44.0078 22.3774 44.0045 22.5285 43.9595L26.3472 42.7989C27.7705 43.589 29.3721 44.0024 31 44ZM25.6667 32.2667C25.6667 31.9838 25.779 31.7125 25.9791 31.5124C26.1791 31.3124 26.4504 31.2 26.7333 31.2H35.2667C35.5496 31.2 35.8209 31.3124 36.0209 31.5124C36.2209 31.7125 36.3333 31.9838 36.3333 32.2667C36.3333 32.5496 36.2209 32.8209 36.0209 33.0209C35.8209 33.2209 35.5496 33.3333 35.2667 33.3333H26.7333C26.4504 33.3333 26.1791 33.2209 25.9791 33.0209C25.779 32.8209 25.6667 32.5496 25.6667 32.2667ZM26.7333 37.6C26.4504 37.6 26.1791 37.4876 25.9791 37.2876C25.779 37.0875 25.6667 36.8162 25.6667 36.5333C25.6667 36.2504 25.779 35.9791 25.9791 35.7791C26.1791 35.579 26.4504 35.4667 26.7333 35.4667H31C31.2829 35.4667 31.5542 35.579 31.7542 35.7791C31.9543 35.9791 32.0667 36.2504 32.0667 36.5333C32.0667 36.8162 31.9543 37.0875 31.7542 37.2876C31.5542 37.4876 31.2829 37.6 31 37.6H26.7333Z" fill="white"/>
</g>
</g>
<defs>
<filter id="filter0_i_1_12" x="0" y="0" width="56" height="56" filterUnits="userSpaceOnUse" color-interpolation-filters="sRGB">
<feFlood flood-opacity="0" result="BackgroundImageFix"/>
<feBlend mode="normal" in="SourceGraphic" in2="BackgroundImageFix" result="shape"/>
<feColorMatrix in="SourceAlpha" type="matrix" values="0 0 0 0 0 0 0 0 0 0 0 0 0 0 0 0 0 0 127 0" result="hardAlpha"/>
<feOffset/>
<feGaussianBlur stdDeviation="4"/>
<feComposite in2="hardAlpha" operator="arithmetic" k2="-1" k3="1"/>
<feColorMatrix type="matrix" values="0 0 0 0 0 0 0 0 0 0 0 0 0 0 0 0 0 0 0.8 0"/>
<feBlend mode="normal" in2="shape" result="effect1_innerShadow_1_12"/>
</filter>
</defs>
</svg>
