<svg width="56" height="56" viewBox="0 0 56 56" fill="none" xmlns="http://www.w3.org/2000/svg">
<g id="&#208;&#152;&#208;&#186;&#208;&#190;&#208;&#189;&#208;&#186;&#208;&#176;">
<g id="Ellipse 23">
<g filter="url(#filter0_i_1_27)">
<circle cx="28" cy="28" r="28" fill="#444444"/>
</g>
<circle cx="28" cy="28" r="27.5" stroke="#464646"/>
</g>
<g id="Vector">
<path d="M41 30C41 31.0609 40.5786 32.0783 39.8284 32.8284C39.0783 33.5786 38.0609 34 37 34C35.9391 34 34.9217 33.5786 34.1716 32.8284C33.4214 32.0783 33 31.0609 33 30C33 28.9391 33.4214 27.9217 34.1716 27.1716C34.9217 26.4214 35.9391 26 37 26C38.0609 26 39.0783 26.4214 39.8284 27.1716C40.5786 27.9217 41 28.9391 41 30ZM44 39C44 41.49 42 44 37 44C32 44 30 41.5 30 39C30 38.2044 30.3161 37.4413 30.8787 36.8787C31.4413 36.3161 32.2044 36 33 36H41C41.7956 36 42.5587 36.3161 43.1213 36.8787C43.6839 37.4413 44 38.2044 44 39Z" fill="#FE2C55"/>
<path d="M12 18C12 16.4087 12.6321 14.8826 13.7574 13.7574C14.8826 12.6321 16.4087 12 18 12H34C35.5913 12 37.1174 12.6321 38.2426 13.7574C39.3679 14.8826 40 16.4087 40 18V24.802C39.0877 24.2753 38.0529 23.9981 36.9995 23.9982C35.9462 23.9982 34.9114 24.2756 33.9992 24.8025C33.087 25.3293 32.3296 26.087 31.8032 26.9994C31.2767 27.9117 30.9997 28.9466 31 30H28C27.7348 30 27.4804 30.1054 27.2929 30.2929C27.1054 30.4804 27 30.7348 27 31C27 31.2652 27.1054 31.5196 27.2929 31.7071C27.4804 31.8946 27.7348 32 28 32H31.34C31.6048 32.7463 32.0146 33.4328 32.546 34.02C31.3036 34.1333 30.1483 34.707 29.3072 35.6284C28.4661 36.5498 27.9998 37.7524 28 39C28 39.334 28.026 39.668 28.076 40H18C16.4087 40 14.8826 39.3679 13.7574 38.2426C12.6321 37.1174 12 35.5913 12 34V18ZM24.708 20.208C24.8958 20.0202 25.0013 19.7656 25.0013 19.5C25.0013 19.2344 24.8958 18.9798 24.708 18.792C24.5202 18.6042 24.2656 18.4987 24 18.4987C23.7344 18.4987 23.4798 18.6042 23.292 18.792L20.468 21.616L19.674 20.892C19.4767 20.7234 19.2216 20.6381 18.9626 20.6541C18.7035 20.6701 18.4609 20.7862 18.2859 20.9778C18.1109 21.1694 18.0172 21.4216 18.0247 21.681C18.0322 21.9404 18.1402 22.1868 18.326 22.368L19.826 23.738C20.0161 23.911 20.2654 24.0043 20.5224 23.9983C20.7794 23.9923 21.0242 23.8877 21.206 23.706L24.706 20.206L24.708 20.208ZM24.708 28.792C24.6151 28.6989 24.5048 28.625 24.3833 28.5746C24.2618 28.5242 24.1315 28.4982 24 28.4982C23.8685 28.4982 23.7382 28.5242 23.6167 28.5746C23.4952 28.625 23.3849 28.6989 23.292 28.792L20.468 31.616L19.674 30.892C19.4767 30.7234 19.2216 30.6381 18.9626 30.6541C18.7035 30.6701 18.4609 30.7862 18.2859 30.9778C18.1109 31.1694 18.0172 31.4216 18.0247 31.681C18.0322 31.9404 18.1402 32.1868 18.326 32.368L19.826 33.738C20.0158 33.9113 20.265 34.0049 20.522 33.9993C20.779 33.9937 21.0239 33.8894 21.206 33.708L24.706 30.208C24.8935 30.0205 24.9988 29.7662 24.9988 29.501C24.9988 29.2358 24.8935 28.9815 24.706 28.794L24.708 28.792ZM27 21C27 21.2652 27.1054 21.5196 27.2929 21.7071C27.4804 21.8946 27.7348 22 28 22H33C33.2652 22 33.5196 21.8946 33.7071 21.7071C33.8946 21.5196 34 21.2652 34 21C34 20.7348 33.8946 20.4804 33.7071 20.2929C33.5196 20.1054 33.2652 20 33 20H28C27.7348 20 27.4804 20.1054 27.2929 20.2929C27.1054 20.4804 27 20.7348 27 21Z" fill="white"/>
</g>
</g>
<defs>
<filter id="filter0_i_1_27" x="0" y="0" width="56" height="56" filterUnits="userSpaceOnUse" color-interpolation-filters="sRGB">
<feFlood flood-opacity="0" result="BackgroundImageFix"/>
<feBlend mode="normal" in="SourceGraphic" in2="BackgroundImageFix" result="shape"/>
<feColorMatrix in="SourceAlpha" type="matrix" values="0 0 0 0 0 0 0 0 0 0 0 0 0 0 0 0 0 0 127 0" result="hardAlpha"/>
<feOffset/>
<feGaussianBlur stdDeviation="4"/>
<feComposite in2="hardAlpha" operator="arithmetic" k2="-1" k3="1"/>
<feColorMatrix type="matrix" values="0 0 0 0 0 0 0 0 0 0 0 0 0 0 0 0 0 0 0.8 0"/>
<feBlend mode="normal" in2="shape" result="effect1_innerShadow_1_27"/>
</filter>
</defs>
</svg>
