<svg width="56" height="56" viewBox="0 0 56 56" fill="none" xmlns="http://www.w3.org/2000/svg">
<g id="&#208;&#152;&#208;&#186;&#208;&#190;&#208;&#189;&#208;&#186;&#208;&#176;">
<g id="Ellipse 23">
<g filter="url(#filter0_i_1_17)">
<circle cx="28" cy="28" r="28" fill="#444444"/>
</g>
<circle cx="28" cy="28" r="27.5" stroke="#464646"/>
</g>
<g id="Vector">
<path d="M32.433 28.64C32.673 28.752 32.945 28.8 33.201 28.8C33.729 28.8 34.2249 28.592 34.6089 28.224L38.097 24.8H39.601C42.033 24.8 44.0009 22.832 44.0009 20.4V16.4C44.0009 13.968 42.033 12 39.601 12H32.4009C29.969 12 28.0009 13.968 28.0009 16.4V20.4C28.0009 22.416 29.361 24.112 31.201 24.64V26.8C31.201 27.6 31.697 28.32 32.433 28.64Z" fill="#FE2C55"/>
<path d="M21.6009 30.4C18.5129 30.4 16.0009 27.888 16.0009 24.8C16.0009 21.712 18.5129 19.2 21.6009 19.2C24.6889 19.2 27.2009 21.712 27.2009 24.8C27.2009 27.888 24.6889 30.4 21.6009 30.4ZM21.6009 44C18.3049 44 15.7769 43.104 14.0809 41.328C11.9433 39.0816 11.9961 36.2496 12.0009 35.9568V35.936C12.0009 34.224 13.4409 32.8 15.2009 32.8H28.0009C29.7609 32.8 31.2009 34.24 31.2009 36L31.2025 36.0096C31.2073 36.2128 31.2745 39.0656 29.1225 41.328C27.4249 43.104 24.8969 44 21.6009 44Z" fill="white"/>
</g>
</g>
<defs>
<filter id="filter0_i_1_17" x="0" y="0" width="56" height="56" filterUnits="userSpaceOnUse" color-interpolation-filters="sRGB">
<feFlood flood-opacity="0" result="BackgroundImageFix"/>
<feBlend mode="normal" in="SourceGraphic" in2="BackgroundImageFix" result="shape"/>
<feColorMatrix in="SourceAlpha" type="matrix" values="0 0 0 0 0 0 0 0 0 0 0 0 0 0 0 0 0 0 127 0" result="hardAlpha"/>
<feOffset/>
<feGaussianBlur stdDeviation="4"/>
<feComposite in2="hardAlpha" operator="arithmetic" k2="-1" k3="1"/>
<feColorMatrix type="matrix" values="0 0 0 0 0 0 0 0 0 0 0 0 0 0 0 0 0 0 0.8 0"/>
<feBlend mode="normal" in2="shape" result="effect1_innerShadow_1_17"/>
</filter>
</defs>
</svg>
