<svg width="56" height="56" viewBox="0 0 56 56" fill="none" xmlns="http://www.w3.org/2000/svg">
<g id="&#208;&#152;&#208;&#186;&#208;&#190;&#208;&#189;&#208;&#186;&#208;&#176;">
<g id="Ellipse 23">
<g filter="url(#filter0_i_1_7)">
<circle cx="28" cy="28" r="28" fill="#444444"/>
</g>
<circle cx="28" cy="28" r="27.5" stroke="#464646"/>
</g>
<g id="Vector">
<path d="M35.1111 12C35.5826 12 36.0348 12.1873 36.3682 12.5207C36.7016 12.8541 36.8889 13.3063 36.8889 13.7778V15.5556H40.4444C41.3874 15.5556 42.2918 15.9302 42.9586 16.597C43.6254 17.2637 44 18.1681 44 19.1111V24.4444H12V19.1111C12 18.1681 12.3746 17.2637 13.0414 16.597C13.7082 15.9302 14.6126 15.5556 15.5556 15.5556H19.1111V13.7778C19.1111 13.3063 19.2984 12.8541 19.6318 12.5207C19.9652 12.1873 20.4174 12 20.8889 12C21.3604 12 21.8126 12.1873 22.146 12.5207C22.4794 12.8541 22.6667 13.3063 22.6667 13.7778V15.5556H33.3333V13.7778C33.3333 13.3063 33.5206 12.8541 33.854 12.5207C34.1874 12.1873 34.6396 12 35.1111 12Z" fill="#FE2C55"/>
<path d="M44 28V40.4444C44 41.3874 43.6254 42.2918 42.9586 42.9586C42.2918 43.6254 41.3874 44 40.4444 44H15.5556C14.6126 44 13.7082 43.6254 13.0414 42.9586C12.3746 42.2918 12 41.3874 12 40.4444V28H44Z" fill="white"/>
</g>
</g>
<defs>
<filter id="filter0_i_1_7" x="0" y="0" width="56" height="56" filterUnits="userSpaceOnUse" color-interpolation-filters="sRGB">
<feFlood flood-opacity="0" result="BackgroundImageFix"/>
<feBlend mode="normal" in="SourceGraphic" in2="BackgroundImageFix" result="shape"/>
<feColorMatrix in="SourceAlpha" type="matrix" values="0 0 0 0 0 0 0 0 0 0 0 0 0 0 0 0 0 0 127 0" result="hardAlpha"/>
<feOffset/>
<feGaussianBlur stdDeviation="4"/>
<feComposite in2="hardAlpha" operator="arithmetic" k2="-1" k3="1"/>
<feColorMatrix type="matrix" values="0 0 0 0 0 0 0 0 0 0 0 0 0 0 0 0 0 0 0.8 0"/>
<feBlend mode="normal" in2="shape" result="effect1_innerShadow_1_7"/>
</filter>
</defs>
</svg>
