<svg width="54" height="49" viewBox="0 0 54 49" fill="none" xmlns="http://www.w3.org/2000/svg">
<g id="Vector">
<path fill-rule="evenodd" clip-rule="evenodd" d="M17.357 10.348C17.357 7.80196 18.3729 5.36017 20.1813 3.55982C21.9897 1.75947 24.4424 0.748047 26.9998 0.748047C29.5572 0.748047 32.0099 1.75947 33.8183 3.55982C35.6266 5.36017 36.6426 7.80196 36.6426 10.348C36.6426 12.8941 35.6266 15.3359 33.8183 17.1363C32.0099 18.9366 29.5572 19.948 26.9998 19.948C24.4424 19.948 21.9897 18.9366 20.1813 17.1363C18.3729 15.3359 17.357 12.8941 17.357 10.348ZM36.6426 18.028C36.6426 15.9912 37.4553 14.0377 38.902 12.5975C40.3487 11.1572 42.3109 10.348 44.3568 10.348C46.4027 10.348 48.3649 11.1572 49.8116 12.5975C51.2583 14.0377 52.071 15.9912 52.071 18.028C52.071 20.0649 51.2583 22.0183 49.8116 23.4586C48.3649 24.8989 46.4027 25.708 44.3568 25.708C42.3109 25.708 40.3487 24.8989 38.902 23.4586C37.4553 22.0183 36.6426 20.0649 36.6426 18.028ZM1.92856 18.028C1.92856 15.9912 2.7413 14.0377 4.188 12.5975C5.6347 11.1572 7.59684 10.348 9.64278 10.348C11.6887 10.348 13.6509 11.1572 15.0976 12.5975C16.5443 14.0377 17.357 15.9912 17.357 18.028C17.357 20.0649 16.5443 22.0183 15.0976 23.4586C13.6509 24.8989 11.6887 25.708 9.64278 25.708C7.59684 25.708 5.6347 24.8989 4.188 23.4586C2.7413 22.0183 1.92856 20.0649 1.92856 18.028ZM12.3685 31.7675C13.9369 29.3202 16.0998 27.3061 18.6572 25.9114C21.2145 24.5167 24.0838 23.7864 26.9998 23.788C29.4422 23.7858 31.8575 24.2972 34.0876 25.2886C36.3177 26.28 38.3124 27.7292 39.941 29.5413C41.5696 31.3533 42.7954 33.4874 43.5382 35.8038C44.281 38.1201 44.524 40.5665 44.2514 42.9829C44.218 43.2831 44.114 43.5712 43.9478 43.8239C43.7816 44.0765 43.5579 44.2866 43.2948 44.437C38.336 47.2697 32.7169 48.7563 26.9998 48.748C21.2826 48.757 15.6633 47.2703 10.7048 44.437C10.4417 44.2866 10.218 44.0765 10.0517 43.8239C9.88554 43.5712 9.78154 43.2831 9.74821 42.9829C9.31636 39.0574 10.2405 35.1027 12.3685 31.7701V31.7675Z" fill="#FE2C55"/>
<path fill-rule="evenodd" clip-rule="evenodd" d="M36.6426 18.028C36.6426 15.9912 37.4553 14.0377 38.902 12.5975C40.3487 11.1572 42.3109 10.348 44.3568 10.348C46.4027 10.348 48.3649 11.1572 49.8116 12.5975C51.2583 14.0377 52.071 15.9912 52.071 18.028C52.071 20.0649 51.2583 22.0183 49.8116 23.4586C48.3649 24.8989 46.4027 25.708 44.3568 25.708C42.3109 25.708 40.3487 24.8989 38.902 23.4586C37.4553 22.0183 36.6426 20.0649 36.6426 18.028ZM1.92856 18.028C1.92856 15.9912 2.7413 14.0377 4.188 12.5975C5.6347 11.1572 7.59684 10.348 9.64278 10.348C11.6887 10.348 13.6509 11.1572 15.0976 12.5975C16.5443 14.0377 17.357 15.9912 17.357 18.028C17.357 20.0649 16.5443 22.0183 15.0976 23.4586C13.6509 24.8989 11.6887 25.708 9.64278 25.708C7.59684 25.708 5.6347 24.8989 4.188 23.4586C2.7413 22.0183 1.92856 20.0649 1.92856 18.028Z" fill="white"/>
<path d="M9.21099 29.558C6.67495 33.4553 5.49339 38.0734 5.84759 42.7036C4.30348 42.4705 2.7848 42.0934 1.31163 41.5772L1.01591 41.4748C0.752076 41.3816 0.521049 41.2142 0.350815 40.9929C0.180582 40.7717 0.0784462 40.506 0.0567786 40.2281L0.0310645 39.9183C-0.0728076 38.6331 0.0844365 37.3402 0.493414 36.1169C0.902392 34.8935 1.55472 33.7646 2.41148 32.7977C3.26823 31.8308 4.31186 31.0456 5.48008 30.489C6.6483 29.9324 7.91718 29.6158 9.21099 29.558ZM48.1524 42.7036C48.5066 38.0734 47.325 33.4553 44.789 29.558C46.0828 29.6158 47.3517 29.9324 48.5199 30.489C49.6881 31.0456 50.7318 31.8308 51.5885 32.7977C52.4453 33.7646 53.0976 34.8935 53.5066 36.1169C53.9156 37.3402 54.0728 38.6331 53.9689 39.9183L53.9432 40.2281C53.9211 40.5055 53.8187 40.7706 53.6485 40.9914C53.4783 41.2122 53.2475 41.3792 52.9841 41.4723L52.6884 41.5747C51.2304 42.0867 49.7158 42.4681 48.1524 42.7036Z" fill="white"/>
</g>
</svg>
