<svg width="52" height="45" viewBox="0 0 52 45" fill="none" xmlns="http://www.w3.org/2000/svg">
<g id="Vector">
<path fill-rule="evenodd" clip-rule="evenodd" d="M50.4166 35.2637L50.6454 35.5018C51.4794 36.4138 51.9588 37.5923 51.9974 38.8249L52 39.1536C52 39.5419 52 39.7334 51.9896 39.8964C51.9098 41.154 51.372 42.3395 50.4769 43.2305C49.5818 44.1215 48.3909 44.6569 47.1276 44.7363C46.879 44.7468 46.6302 44.7503 46.3814 44.7466H5.6186C5.2286 44.7466 5.0362 44.7466 4.8724 44.7363C3.60906 44.6569 2.4182 44.1215 1.52311 43.2305C0.628018 42.3395 0.0901647 41.154 0.0103999 39.8964C-1.34724e-07 39.7334 0 39.5393 0 39.1562L0.00259981 38.8275C0.0438693 37.4809 0.610962 36.2033 1.5834 35.2662L4.9478 31.8059H47.0522L50.4166 35.2637ZM17.55 39.5703C17.55 39.0555 17.7554 38.5618 18.1211 38.1978C18.4868 37.8337 18.9828 37.6292 19.5 37.6292H32.5C33.0172 37.6292 33.5132 37.8337 33.8789 38.1978C34.2446 38.5618 34.45 39.0555 34.45 39.5703C34.45 40.0852 34.2446 40.5789 33.8789 40.9429C33.5132 41.3069 33.0172 41.5115 32.5 41.5115H19.5C18.9828 41.5115 18.4868 41.3069 18.1211 40.9429C17.7554 40.5789 17.55 40.0852 17.55 39.5703Z" fill="#FE2C55"/>
<path fill-rule="evenodd" clip-rule="evenodd" d="M6.1178 11.1007C6.1178 6.2194 6.1178 3.78136 7.6414 2.2647C9.165 0.748047 11.6142 0.748047 16.5178 0.748047H35.4822C40.3858 0.748047 42.8376 0.748047 44.3586 2.2647C45.8822 3.78136 45.8822 6.2194 45.8822 11.1007V29.2177H6.1178V11.1007ZM26 9.80658C26.5172 9.80658 27.0132 9.60207 27.3789 9.23804C27.7446 8.87401 27.95 8.38028 27.95 7.86547C27.95 7.35065 27.7446 6.85692 27.3789 6.49289C27.0132 6.12886 26.5172 5.92435 26 5.92435C25.4828 5.92435 24.9868 6.12886 24.6211 6.49289C24.2554 6.85692 24.05 7.35065 24.05 7.86547C24.05 8.38028 24.2554 8.87401 24.6211 9.23804C24.9868 9.60207 25.4828 9.80658 26 9.80658Z" fill="white"/>
</g>
</svg>
