<svg width="50" height="41" viewBox="0 0 50 41" fill="none" xmlns="http://www.w3.org/2000/svg">
<g id="Vector">
<path d="M7.50117 5.00171H26.4026C26.1135 5.56441 25.9416 6.19744 25.9416 6.87735C25.9416 9.12031 27.7622 10.9412 30.0047 10.9412H39.178C38.8654 12.2698 39.2249 13.7156 40.2563 14.755C41.8425 16.3415 44.4132 16.3415 45.9994 14.755L47.5074 13.2467V30.0103C47.5074 32.769 45.2649 35.012 42.5066 35.012H23.6053C23.8944 34.4493 24.0663 33.8162 24.0663 33.1363C24.0663 30.8934 22.2457 29.0724 20.0031 29.0724H10.8298C11.1424 27.7439 10.7829 26.2981 9.75152 25.2586C8.16534 23.6722 5.59462 23.6722 4.00844 25.2586L2.50039 26.767V10.0034C2.50039 7.24467 4.74293 5.00171 7.50117 5.00171ZM12.502 10.0034H7.50117V15.0051C10.2594 15.0051 12.502 12.7622 12.502 10.0034ZM42.5066 25.0085C39.7484 25.0085 37.5059 27.2515 37.5059 30.0103H42.5066V25.0085ZM25.0039 27.5094C26.9933 27.5094 28.9013 26.719 30.308 25.312C31.7148 23.905 32.5051 21.9966 32.5051 20.0068C32.5051 18.017 31.7148 16.1087 30.308 14.7017C28.9013 13.2947 26.9933 12.5043 25.0039 12.5043C23.0145 12.5043 21.1065 13.2947 19.6998 14.7017C18.293 16.1087 17.5027 18.017 17.5027 20.0068C17.5027 21.9966 18.293 23.905 19.6998 25.312C21.1065 26.719 23.0145 27.5094 25.0039 27.5094Z" fill="white"/>
<path d="M41.8034 3.20422C41.0689 2.4696 41.0689 1.28169 41.8034 0.554879C42.5379 -0.171932 43.7256 -0.179747 44.4523 0.554879L49.453 5.55659C49.8047 5.90827 50 6.385 50 6.88517C50 7.38534 49.8047 7.86206 49.453 8.21375L44.4523 13.2155C43.7178 13.9501 42.5301 13.9501 41.8034 13.2155C41.0767 12.4808 41.0689 11.2929 41.8034 10.5661L43.6006 8.76862L30.0047 8.75299C28.9655 8.75299 28.1294 7.91677 28.1294 6.87735C28.1294 5.83793 28.9655 5.00171 30.0047 5.00171H43.6084L41.8034 3.20422ZM8.20441 29.4632L6.40725 31.2607H20.0031C21.0424 31.2607 21.8784 32.0969 21.8784 33.1363C21.8784 34.1757 21.0424 35.012 20.0031 35.012H6.39944L8.19659 36.8095C8.93108 37.5441 8.93108 38.732 8.19659 39.4588C7.4621 40.1856 6.27442 40.1934 5.54774 39.4588L0.54696 34.4649C0.195343 34.1132 0 33.6365 0 33.1363C0 32.6362 0.195343 32.1594 0.54696 31.8077L5.54774 26.806C6.28223 26.0714 7.46992 26.0714 8.19659 26.806C8.92327 27.5407 8.93108 28.7286 8.19659 29.4554L8.20441 29.4632Z" fill="#FE2C55"/>
</g>
</svg>
