<svg width="48" height="49" viewBox="0 0 48 49" fill="none" xmlns="http://www.w3.org/2000/svg">
<g id="Vector">
<path d="M39.4407 41.8914C38.5283 41.8907 37.6371 41.616 36.8827 41.1029C36.1283 40.5543 35.5796 39.831 35.2367 38.9739L34.3452 36.2243C34.252 35.9362 34.0867 35.6766 33.8651 35.4701C33.6496 35.2597 33.3927 35.0962 33.1107 34.9901L30.5458 34.1468C29.9238 36.5728 28.4381 38.6886 26.3672 40.0976C24.2963 41.5066 21.7824 42.1121 19.297 41.8004C16.8115 41.4887 14.5251 40.2814 12.8664 38.4047C11.2077 36.528 10.2906 34.1108 10.2871 31.6064C10.2862 30.0074 10.6581 28.4302 11.3735 27C12.0889 25.5699 13.1279 24.3262 14.4081 23.3677C15.6883 22.4093 17.1744 21.7625 18.7483 21.4787C20.3223 21.1948 21.9407 21.2819 23.4752 21.7328L23.2934 21.1842C22.9848 20.3957 22.6762 19.95 22.299 19.5729C21.8378 19.1292 21.2872 18.7891 20.6839 18.5753L17.0457 17.3754C16.017 17.0325 15.194 16.3777 14.6111 15.5515C14.1933 14.9575 13.9126 14.2782 13.7893 13.5626C13.666 12.8471 13.703 12.113 13.8979 11.4135C12.739 11.8849 11.7918 12.7625 11.2335 13.8819L9.22752 17.893H6.85806C5.03919 17.893 3.29482 18.6154 2.00868 19.9013C0.722544 21.1872 0 22.9312 0 24.7497V41.8914C0 43.7099 0.722544 45.4539 2.00868 46.7398C3.29482 48.0257 5.03919 48.748 6.85806 48.748H34.2903C36.1092 48.748 37.8536 48.0257 39.1397 46.7398C40.4258 45.4539 41.1484 43.7099 41.1484 41.8914V41.6205C40.5993 41.8098 40.0214 41.9015 39.4407 41.8914ZM27.4323 31.6064C27.4323 33.4249 26.7097 35.1689 25.4236 36.4548C24.1374 37.7406 22.3931 38.463 20.5742 38.463C18.7553 38.463 17.0109 37.7406 15.7248 36.4548C14.4387 35.1689 13.7161 33.4249 13.7161 31.6064C13.7161 29.7879 14.4387 28.0439 15.7248 26.758C17.0109 25.4721 18.7553 24.7497 20.5742 24.7497C22.3931 24.7497 24.1374 25.4721 25.4236 26.758C26.7097 28.0439 27.4323 29.7879 27.4323 31.6064Z" fill="#FE2C55"/>
<path d="M30.4429 1.71817L31.6362 5.38991C32.0075 6.50607 32.6342 7.52021 33.4664 8.35165C34.2986 9.1831 35.3134 9.8089 36.43 10.1793L40.106 11.3724L40.178 11.3929C40.4612 11.4926 40.7065 11.6777 40.8801 11.9228C41.0536 12.1678 41.1468 12.4606 41.1468 12.7608C41.1468 13.0611 41.0536 13.3539 40.8801 13.5989C40.7065 13.8439 40.4612 14.029 40.178 14.1287L36.5055 15.3218C35.3886 15.6925 34.3735 16.3183 33.5407 17.1497C32.708 17.981 32.0806 18.995 31.7083 20.1112L30.515 23.7795C30.4152 24.0627 30.2301 24.308 29.985 24.4815C29.7399 24.655 29.4471 24.7481 29.1468 24.7481C28.8465 24.7481 28.5536 24.655 28.3085 24.4815C28.0635 24.308 27.8783 24.0627 27.7786 23.7795L26.5853 20.1112C26.2167 18.9907 25.5908 17.9721 24.7578 17.1369C23.9247 16.3016 22.9077 15.673 21.7881 15.3012L18.1121 14.1082C17.8289 14.0085 17.5836 13.8233 17.41 13.5783C17.2365 13.3333 17.1433 13.0405 17.1433 12.7403C17.1433 12.44 17.2365 12.1472 17.41 11.9022C17.5836 11.6572 17.8289 11.472 18.1121 11.3724L21.7881 10.1793C22.891 9.79871 23.8911 9.16842 24.7101 8.33762C25.5292 7.50682 26.1451 6.498 26.5098 5.38991L27.7032 1.7216C27.8021 1.43721 27.9872 1.19069 28.2327 1.01623C28.4782 0.841778 28.7719 0.748047 29.073 0.748047C29.3742 0.748047 29.6679 0.841778 29.9134 1.01623C30.1589 1.19069 30.344 1.43378 30.4429 1.71817ZM47.2623 28.9083L44.6391 28.0581C43.8405 27.7933 43.1146 27.3458 42.5193 26.7512C41.924 26.1567 41.4757 25.4314 41.2101 24.6332L40.3597 22.0139C40.2887 21.8114 40.1565 21.6359 39.9815 21.5118C39.8064 21.3877 39.5971 21.321 39.3824 21.321C39.1678 21.321 38.9585 21.3877 38.7834 21.5118C38.6083 21.6359 38.4762 21.8114 38.4052 22.0139L37.5479 24.6332C37.2884 25.4253 36.849 26.1467 36.2643 26.7408C35.6795 27.335 34.9652 27.7858 34.1772 28.0581L31.554 28.9083C31.353 28.9808 31.1792 29.1136 31.0564 29.2884C30.9336 29.4633 30.8677 29.6717 30.8677 29.8854C30.8677 30.099 30.9336 30.3075 31.0564 30.4823C31.1792 30.6572 31.353 30.7899 31.554 30.8624L34.1772 31.7161C34.9768 31.9821 35.7033 32.4313 36.2986 33.0277C36.8939 33.6241 37.3417 34.3513 37.6062 35.1513L38.4566 37.7705C38.5276 37.973 38.6598 38.1485 38.8348 38.2726C39.0099 38.3967 39.2192 38.4634 39.4339 38.4634C39.6485 38.4634 39.8578 38.3967 40.0329 38.2726C40.208 38.1485 40.3401 37.973 40.4111 37.7705L41.265 35.1513C41.53 34.3533 41.9777 33.6281 42.5724 33.0336C43.1671 32.439 43.8924 31.9914 44.6906 31.7264L47.3138 30.8761C47.5148 30.8036 47.6885 30.6709 47.8113 30.496C47.9341 30.3212 48 30.1127 48 29.8991C48 29.6854 47.9341 29.477 47.8113 29.3021C47.6885 29.1273 47.5148 28.9945 47.3138 28.922L47.2623 28.9083Z" fill="white"/>
</g>
</svg>
