<svg width="64" height="39" viewBox="0 0 64 39" fill="none" xmlns="http://www.w3.org/2000/svg">
<g id="Vector">
<path d="M32.34 2.84616L22.66 10.6052C21.05 11.8918 20.74 14.2077 21.96 15.8604C23.25 17.6221 25.76 17.9685 27.49 16.6324L37.42 8.99207C38.12 8.45764 39.12 8.5764 39.67 9.26918C40.22 9.96195 40.09 10.9516 39.39 11.496L37.3 13.0992L51.2 25.7671V7.08199H51.13L43.48 2.23256C41.95 1.26268 40.16 0.748047 38.34 0.748047C36.16 0.748047 34.04 1.49031 32.34 2.84616ZM34.62 15.1578L29.45 19.1363C26.3 21.5709 21.73 20.9375 19.37 17.7309C17.15 14.7124 17.71 10.4964 20.64 8.15084L28.96 1.49031C27.8 1.00536 26.55 0.757944 25.28 0.757944C23.4 0.748047 21.57 1.30227 20 2.33153L12.8 7.08199V29.2508H15.62L24.76 37.5047C26.72 39.2762 29.75 39.1377 31.54 37.1979C32.09 36.5942 32.46 35.8915 32.65 35.1592L34.35 36.7031C36.3 38.4746 39.34 38.3459 41.13 36.4161C41.58 35.9311 41.91 35.367 42.12 34.7831C44.06 36.0697 46.7 35.8025 48.33 34.0408C50.12 32.111 49.99 29.1023 48.04 27.3308L34.62 15.1578Z" fill="white"/>
<path d="M1.6 7.08199C0.72 7.08199 0 7.79455 0 8.66547V29.2508C0 31.0025 1.43 32.4178 3.2 32.4178H6.4C8.17 32.4178 9.6 31.0025 9.6 29.2508V7.08199H1.6ZM4.8 26.0838C5.22435 26.0838 5.63131 26.2506 5.93137 26.5476C6.23143 26.8446 6.4 27.2473 6.4 27.6673C6.4 28.0873 6.23143 28.49 5.93137 28.787C5.63131 29.084 5.22435 29.2508 4.8 29.2508C4.37565 29.2508 3.96869 29.084 3.66863 28.787C3.36857 28.49 3.2 28.0873 3.2 27.6673C3.2 27.2473 3.36857 26.8446 3.66863 26.5476C3.96869 26.2506 4.37565 26.0838 4.8 26.0838ZM54.4 7.08199V29.2508C54.4 31.0025 55.83 32.4178 57.6 32.4178H60.8C62.57 32.4178 64 31.0025 64 29.2508V8.66547C64 7.79455 63.28 7.08199 62.4 7.08199H54.4ZM57.6 27.6673C57.6 27.2473 57.7686 26.8446 58.0686 26.5476C58.3687 26.2506 58.7756 26.0838 59.2 26.0838C59.6243 26.0838 60.0313 26.2506 60.3314 26.5476C60.6314 26.8446 60.8 27.2473 60.8 27.6673C60.8 28.0873 60.6314 28.49 60.3314 28.787C60.0313 29.084 59.6243 29.2508 59.2 29.2508C58.7756 29.2508 58.3687 29.084 58.0686 28.787C57.7686 28.49 57.6 28.0873 57.6 27.6673Z" fill="#FE2C55"/>
</g>
</svg>
