<svg width="51" height="49" viewBox="0 0 51 49" fill="none" xmlns="http://www.w3.org/2000/svg">
<g id="Vector">
<path d="M35.6225 0.748047H10.8675C8.11965 0.748047 5.91645 2.95124 5.91645 5.69905V20.1065C8.95163 17.1875 13.0095 15.5735 17.2204 15.6105C21.4313 15.6476 25.4601 17.3326 28.4435 20.3045C31.4518 23.3309 33.1403 27.4247 33.1403 31.6918C33.1403 35.959 31.4518 40.0528 28.4435 43.0791C27.5523 43.9456 26.5869 44.6635 25.5719 45.3071H45.5245C48.2723 45.3071 50.4755 43.1039 50.4755 40.3561V15.6011L35.6225 0.748047ZM33.147 18.0766V4.4613L46.7622 18.0766H33.147Z" fill="white"/>
<path d="M17.0562 20.5521C10.8675 20.5521 5.91645 25.5031 5.91645 31.6918C5.91645 33.8703 6.53533 35.9249 7.62455 37.633L0 45.3071L3.44095 48.748L11.1645 41.1483C12.8726 42.2127 14.9025 42.8316 17.0562 42.8316C23.245 42.8316 28.196 37.8806 28.196 31.6918C28.196 25.5031 23.245 20.5521 17.0562 20.5521ZM17.0562 37.8806C15.4149 37.8806 13.8407 37.2286 12.6801 36.0679C11.5195 34.9073 10.8675 33.3332 10.8675 31.6918C10.8675 30.0505 11.5195 28.4763 12.6801 27.3157C13.8407 26.1551 15.4149 25.5031 17.0562 25.5031C18.6976 25.5031 20.2717 26.1551 21.4323 27.3157C22.5929 28.4763 23.245 30.0505 23.245 31.6918C23.245 33.3332 22.5929 34.9073 21.4323 36.0679C20.2717 37.2286 18.6976 37.8806 17.0562 37.8806Z" fill="#FE2C55"/>
</g>
</svg>
